<?xml version="1.0" encoding="UTF-8"?>
<svg width="350px" height="192px" viewBox="0 0 350 192" version="1.1" xmlns="http://www.w3.org/2000/svg" xmlns:xlink="http://www.w3.org/1999/xlink">
    <title>logo</title>
    <g id="logo" stroke="none" stroke-width="1" fill="none" fill-rule="evenodd">
        <g transform="translate(12.000000, 11.000000)">
            <g id="bv" transform="translate(185.500000, 17.000000)" fill="#000000" fill-rule="nonzero" stroke="#000000" stroke-width="4">
                <path d="M73.5906,0.53 L73.7824687,0.53658125 C74.7291562,0.60239375 75.486,1.1618 76.053,2.2148 L76.053,2.2148 L95.3774,57.278 L106.970388,90.9437385 C106.348891,91.2059226 105.635396,91.3498228 104.829902,91.3754392 L104.565,91.3796 C101.973,91.3796 100.245,90.17 99.381,87.7508 L99.381,87.7508 L69.573,4.0292 L69.526344,3.868496 C69.471048,3.647312 69.4434,3.39848 69.4434,3.122 C69.4434,1.394 70.3074,0.53 72.0354,0.53 L72.0354,0.53 L73.5906,0.53 Z M136.7058,0.53 L136.90135,0.53383432 C138.498983,0.597739645 139.2978,1.46046154 139.2978,3.122 C139.2978,3.4676 139.2546,3.77 139.1682,4.0292 L139.1682,4.0292 L114.7264,73.386 L111.2994,63.435 L132.6882,2.2148 L132.782821,2.02241799 C133.304211,1.02747266 134.093471,0.53 135.1506,0.53 L135.1506,0.53 L136.7058,0.53 Z" id="Combined-Shape"></path>
                <path d="M55.1712,57.554 C56.1216,60.2324 56.5968,63.4292 56.5968,67.1444 C56.5968,70.8596 55.7112,74.618 53.94,78.4196 C52.1688,82.2212 49.5984,85.1156 46.2288,87.1028 C41.42712,89.79848 34.654224,91.180016 25.910112,91.247408 L25.2336,91.25 L6.4416,91.25 L6.109986,91.246922 C4.043622,91.207934 2.62056,90.79856 1.8408,90.0188 C1.06104,89.23904 0.651666,87.77699 0.612678,85.63265 L0.6096,85.2884 L0.609,51.625 L7.089,51.625 L7.0896,84.8996 L27.3072,84.8996 C42.5136,84.8996 50.1168,78.722 50.1168,66.3668 C50.1168,61.2692 48.0216,56.8412 43.8312,53.0828 C43.2489328,52.5605603 42.6337187,52.074604 41.9855577,51.6249309 L51.5197269,51.6255229 C53.2486019,53.5897815 54.4657596,55.5659406 55.1712,57.554 Z M20.1792,0.53 L20.8371737,0.53193608 C30.867631,0.59130919 38.2083064,2.01626383 42.8592,4.8068 C49.512,8.8676 52.8384,15.3476 52.8384,24.2468 C52.6656,28.394 51.4992,32.3252 49.3392,36.0404 C49.0086737,36.6089053 48.6467892,37.1541448 48.2535467,37.6761187 L40.0371265,37.6764715 C40.6685858,37.18115 41.242077,36.6357928 41.7576,36.0404 C44.8248,32.498 46.3584,28.5236 46.3584,24.1172 C46.3584,19.538 44.8896,15.7364 41.952,12.7124 C38.4096,8.9108 31.1088,7.01 20.0496,7.01 L7.0896,7.01 L7.089,37.675 L0.609,37.675 L0.6096,6.2324 L0.612354,5.900948 C0.647238,3.836636 1.01352,2.43512 1.7112,1.6964 C2.40888,0.95768 3.78885,0.569852 5.85111,0.532916 L6.1824,0.53 L20.1792,0.53 Z" id="Combined-Shape"></path>
            </g>
            <g id="Group" fill="#03AEA8" stroke="#03AEA8" stroke-width="3.61111111">
                <g id="iso" transform="translate(0.000000, -0.998400)">
                    <g id="imago" transform="translate(0.000000, 0.225333)">
                        <path d="M64.8171228,106.081624 C57.898971,106.081624 51.4792788,102.062292 48.4642279,95.8424304 C48.0314498,94.9496446 48.4057444,93.8754274 49.3000925,93.4434053 C50.1926412,93.0131795 51.2705376,93.3841257 51.7033158,94.2778097 C54.1218347,99.2662731 59.2692851,102.489823 64.8171228,102.489823 C69.915987,102.489823 74.5559803,99.8976901 77.2300273,95.5568108 C77.7500808,94.7116282 78.8585687,94.4466666 79.70613,94.9676081 C80.5518918,95.4876513 80.8164174,96.5933046 80.2963638,97.4384872 C76.9619028,102.849991 71.1756322,106.081624 64.8171228,106.081624 Z" id="Path"></path>
                        <path d="M55.1412476,76.5891533 C54.5879034,76.5891533 54.042657,76.3358679 53.6899563,75.8571407 C53.101522,75.0577651 53.2724739,73.9332501 54.0732484,73.3458437 C57.2025671,71.0474141 60.917621,69.8330817 64.8171228,69.8330817 C66.1064598,69.8330817 67.3867992,69.9678079 68.6248506,70.2327695 C69.5965769,70.4411461 70.2156026,71.395906 70.0059616,72.3659349 C69.7981202,73.3359638 68.8443887,73.9548063 67.8690634,73.7455315 C66.8793421,73.5335622 65.8527312,73.4257813 64.8162231,73.4257813 C61.6887038,73.4257813 58.7114422,74.3985047 56.2056479,76.238865 C55.8844383,76.4759832 55.5110435,76.5891533 55.1412476,76.5891533 Z" id="Path"></path>
                        <path d="M78.7613961,98.2935497 C78.4410863,98.2935497 78.115378,98.2073249 77.8211608,98.0276899 C76.975399,97.5085449 76.7099737,96.4019934 77.2300273,95.5568108 C78.633632,93.2745484 79.3750233,90.6473868 79.3750233,87.9591493 C79.3750233,84.2523815 77.976817,80.7225541 75.4386318,78.020844 C74.7584233,77.2969151 74.7953129,76.1607238 75.5205087,75.4817036 C76.243905,74.8044797 77.383884,74.8386104 78.0640924,75.5634375 C81.2303008,78.9333897 82.9740098,83.3362431 82.9740098,87.9600475 C82.9740098,91.3129344 82.0481705,94.5903746 80.2963638,97.437589 C79.9571593,97.9881702 79.3660258,98.2935497 78.7613961,98.2935497 Z" id="Path"></path>
                        <path d="M65.1776203,123.132572 C53.0920881,123.132572 41.8721112,117.130554 35.1642646,107.07546 C34.6574973,106.31685 34.8633457,105.291612 35.62391,104.786422 C36.3836476,104.280407 37.4104094,104.48595 37.9155234,105.245385 C44.0091315,114.378425 54.1998666,119.831504 65.1776203,119.831504 C83.2269688,119.831504 97.9108202,105.169442 97.9108202,87.1493534 C97.9108202,69.1267887 83.2269688,54.4639014 65.1776203,54.4639014 C47.1290986,54.4639014 32.4452472,69.1267887 32.4452472,87.1493534 C32.4452472,90.1161055 32.8412367,93.0531405 33.6257753,95.8779111 C33.8696519,96.7570404 33.3529642,97.6667123 32.4725283,97.9094016 C31.5953993,98.1512653 30.6810687,97.6369953 30.4380188,96.7586914 C29.5757704,93.646656 29.1384459,90.413276 29.1384459,87.1493534 C29.1384459,67.3057939 45.3053977,51.1620071 65.1776203,51.1620071 C85.049843,51.1620071 101.217622,67.3057939 101.217622,87.1493534 C101.217622,106.990436 85.049843,123.132572 65.1776203,123.132572 Z" id="Path"></path>
                        <path d="M61.0876077,166.515401 C49.1161612,166.516656 37.3881073,163.295389 27.1722338,157.204616 C26.1969886,156.623663 25.8788849,155.362005 26.4639648,154.389754 C27.0469849,153.417502 28.310694,153.098097 29.2890285,153.68213 C38.8653799,159.393128 49.8622329,162.412232 61.0880387,162.411054 C76.4292868,162.409446 91.155251,156.783161 102.554121,146.568323 C103.399741,145.808551 104.703575,145.880276 105.462515,146.722008 C106.222486,147.565794 106.153347,148.863423 105.307727,149.621143 C93.1518169,160.512589 77.4474174,166.513686 61.0876077,166.515401 Z" id="Path" transform="translate(66.080440, 156.278516) rotate(-356.000000) translate(-66.080440, -156.278516) "></path>
                        <g id="Group-2" transform="translate(65.235746, 28.320544) rotate(-4.000000) translate(-65.235746, -28.320544) translate(1.735746, 5.357344)">
                            <path d="M2.56986427,32.9756571 C2.07953651,32.9756571 1.58690674,32.8202975 1.16909223,32.5003717 C0.160812607,31.7258751 -0.0291030755,30.2816057 0.744371706,29.2723434 C14.8694945,10.8674035 36.2643594,0.312153789 59.4421298,0.312153789 C64.9151545,0.312153789 70.3755181,0.91287777 75.6701371,2.09821436 C76.9109196,2.37556011 77.6924514,3.60692919 77.4150594,4.84750476 C77.1365164,6.08808034 75.904942,6.87178347 74.6653105,6.59098528 C69.6998787,5.47930067 64.5779103,4.91540268 59.4421298,4.91540268 C37.7065676,4.91540268 17.6445655,14.8146894 4.39765884,32.075722 C3.94416321,32.6660887 3.25931575,32.9756571 2.56986427,32.9756571 Z" id="Path"></path>
                            <path d="M123.988922,45.8873933 C123.133418,45.8873933 122.312226,45.4056044 121.921073,44.5824533 C114.468583,28.9083321 101.49878,16.7060589 85.3997542,10.221318 C84.2285833,9.74980425 83.6612974,8.41860566 84.1347981,7.2495256 C84.6082989,6.08158722 85.9407346,5.51417239 87.1119055,5.9868278 C104.279167,12.9008403 118.109049,25.9125644 126.054483,42.6244725 C126.596607,43.7638689 126.110525,45.1247512 124.969091,45.6659074 C124.65228,45.8166091 124.318314,45.8873933 123.988922,45.8873933 Z" id="Path"></path>
                        </g>
                    </g>
                    <g id="Group-3" transform="translate(7.673611, 30.517067)" fill-rule="nonzero">
                        <path d="M24.3305218,15.061974 C23.6917056,15.061974 23.0591727,14.7711134 22.6486547,14.2186876 C21.9585237,13.2917003 22.1501686,11.9807352 23.078023,11.2912492 C33.0058562,3.90359995 44.8155792,-2.23023955e-14 57.227465,-2.23023955e-14 C68.0360268,-2.23023955e-14 78.5628811,3.02578694 87.6675837,8.75092737 C88.6467795,9.36612886 88.9410273,10.6582612 88.3242031,11.6365153 C87.7084261,12.6147694 86.415085,12.9077225 85.4359158,12.292521 C76.9993521,6.98797751 67.2453608,4.18399791 57.2264178,4.18399791 C45.7224888,4.18399791 34.7788331,7.8019686 25.5777844,14.6466083 C25.2039198,14.9270063 24.7651263,15.061974 24.3305218,15.061974 Z" id="Path"></path>
                        <path d="M110.815772,46.2688021 C109.872209,46.2688021 109.013472,45.6253516 108.782032,44.6680227 C106.807985,36.5155567 102.838946,28.8360006 97.3042842,22.4621783 C96.5460826,21.5895966 96.6403342,20.2671227 97.5137321,19.5106759 C98.3860829,18.7531829 99.7108412,18.8463002 100.467996,19.7199281 C106.439357,26.597002 110.722567,34.8844357 112.8537,43.6845373 C113.125983,44.8082217 112.434805,45.9381836 111.310069,46.2102115 C111.144605,46.2489232 110.979141,46.2688021 110.815772,46.2688021 Z" id="Path"></path>
                        <path d="M57.227465,114.351101 C42.9085555,114.351101 29.205423,109.042372 18.6419153,99.4010767 C17.7884149,98.6205659 17.727675,97.298092 18.5078686,96.444343 C19.2880623,95.5926865 20.6117734,95.5299108 21.466321,96.3114678 C31.2569657,105.245491 43.9568425,110.166057 57.2264178,110.166057 C74.1550488,110.166057 89.6709534,102.374551 99.7935732,88.7909434 C100.483704,87.8650024 101.79799,87.6724904 102.724797,88.3630227 C103.652652,89.0525087 103.844297,90.3645201 103.154166,91.2904611 C92.3937769,105.72991 75.2253279,114.351101 57.227465,114.351101 Z" id="Path"></path>
                        <path d="M12.9836788,92.1389788 C12.3438153,92.1389788 11.7123297,91.847072 11.3018117,91.2946461 C3.90725162,81.3750452 5.58081464e-14,69.5763594 5.58081464e-14,57.1760735 C5.58081464e-14,56.0210013 0.938326843,55.0835514 2.09447956,55.0835514 C3.25063228,55.0835514 4.18895912,56.0210013 4.18895912,57.1760735 C4.18895912,68.6682048 7.81031428,79.602679 14.6624042,88.7951285 C15.3525352,89.723162 15.1608903,91.0330809 14.2330359,91.7236131 C13.8570768,92.0040111 13.4182833,92.1389788 12.9836788,92.1389788 Z" id="Path"></path>
                        <path d="M3.64125272,46.2646171 C3.47788331,46.2646171 3.31241943,46.2447381 3.14695554,46.2049802 C2.02222002,45.9329523 1.33104176,44.8029904 1.60227686,43.679306 C3.76168529,34.7641157 8.12343898,26.3877498 14.2173273,19.4562704 C14.9807651,18.5878737 16.3044761,18.501034 17.1736852,19.2648046 C18.0418469,20.0275289 18.1277206,21.3500029 17.36533,22.2173533 C11.7165187,28.6424423 7.67417311,36.4036067 5.67499237,44.6627914 C5.44355238,45.6211665 4.58481576,46.2646171 3.64125272,46.2646171 Z" id="Path"></path>
                    </g>
                </g>
            </g>
            <g id="apps" transform="translate(182.000000, 150.500000)" fill="#000000" fill-rule="nonzero">
                <path d="M2.53198242,15 L4.14355469,10.5556641 L10.279541,10.5556641 L11.9912109,15 L14.2033691,15 L8.19750977,0.325683594 L6.10546875,0.325683594 L0.469970703,15 L2.53198242,15 Z M9.67895508,8.97412109 L4.70410156,8.97412109 L6.31567383,4.66992188 C6.65600586,3.74235026 6.91959635,2.80810547 7.10644531,1.8671875 C7.33333333,2.66129557 7.68033854,3.67561849 8.14746094,4.91015625 L8.14746094,4.91015625 L9.67895508,8.97412109 Z M45.043457,15 L45.043457,9.03417969 L48.8071289,9.03417969 C50.882487,9.03417969 52.3172201,8.60209147 53.1113281,7.73791504 C53.9054362,6.87373861 54.3024902,5.81770833 54.3024902,4.56982422 C54.3024902,3.84244792 54.154012,3.17513021 53.8570557,2.56787109 C53.5600993,1.96061198 53.1680501,1.4884847 52.6809082,1.15148926 C52.1937663,0.814493815 51.5898438,0.5859375 50.8691406,0.465820312 C50.355306,0.372395833 49.6112467,0.325683594 48.6369629,0.325683594 L48.6369629,0.325683594 L43.1015625,0.325683594 L43.1015625,15 L45.043457,15 Z M48.8371582,7.30249023 L45.043457,7.30249023 L45.043457,2.05737305 L48.7971191,2.05737305 C49.6779785,2.05737305 50.281901,2.1007487 50.6088867,2.1875 C51.1160482,2.32763672 51.5247803,2.61625163 51.835083,3.05334473 C52.1453857,3.49043783 52.3005371,4.01595052 52.3005371,4.62988281 C52.3005371,5.4773763 52.0369466,6.13468424 51.5097656,6.60180664 C50.9825846,7.06892904 50.0917155,7.30249023 48.8371582,7.30249023 L48.8371582,7.30249023 Z M84.8242188,15 L84.8242188,9.03417969 L88.5878906,9.03417969 C90.6632487,9.03417969 92.0979818,8.60209147 92.8920898,7.73791504 C93.6861979,6.87373861 94.083252,5.81770833 94.083252,4.56982422 C94.083252,3.84244792 93.9347738,3.17513021 93.6378174,2.56787109 C93.340861,1.96061198 92.9488118,1.4884847 92.4616699,1.15148926 C91.974528,0.814493815 91.3706055,0.5859375 90.6499023,0.465820312 C90.1360677,0.372395833 89.3920085,0.325683594 88.4177246,0.325683594 L88.4177246,0.325683594 L82.8823242,0.325683594 L82.8823242,15 L84.8242188,15 Z M88.6179199,7.30249023 L84.8242188,7.30249023 L84.8242188,2.05737305 L88.5778809,2.05737305 C89.4587402,2.05737305 90.0626628,2.1007487 90.3896484,2.1875 C90.8968099,2.32763672 91.305542,2.61625163 91.6158447,3.05334473 C91.9261475,3.49043783 92.0812988,4.01595052 92.0812988,4.62988281 C92.0812988,5.4773763 91.8177083,6.13468424 91.2905273,6.60180664 C90.7633464,7.06892904 89.8724772,7.30249023 88.6179199,7.30249023 L88.6179199,7.30249023 Z M129.258545,15.2502441 C130.306234,15.2502441 131.24882,15.0583903 132.086304,14.6746826 C132.923787,14.2909749 133.566081,13.7537842 134.013184,13.0631104 C134.460286,12.3724365 134.683838,11.6367188 134.683838,10.855957 C134.683838,10.0685221 134.480306,9.37284342 134.073242,8.7689209 C133.666178,8.16499837 133.035563,7.66617839 132.181396,7.27246094 C131.594157,7.00553385 130.511434,6.69356283 128.933228,6.33654785 C127.355021,5.97953288 126.379069,5.63085938 126.005371,5.29052734 C125.625,4.95019531 125.434814,4.5164388 125.434814,3.98925781 C125.434814,3.3819987 125.70341,2.86315918 126.240601,2.43273926 C126.777791,2.00231934 127.633626,1.78710938 128.808105,1.78710938 C129.935872,1.78710938 130.788371,2.02400716 131.365601,2.49780273 C131.94283,2.97159831 132.281494,3.6722819 132.381592,4.59985352 L132.381592,4.59985352 L134.243408,4.4597168 C134.210042,3.59887695 133.969808,2.828125 133.522705,2.14746094 C133.075602,1.46679688 132.436646,0.951293945 131.605835,0.600952148 C130.775024,0.250610352 129.815755,0.0754394531 128.728027,0.0754394531 C127.740397,0.0754394531 126.842855,0.24226888 126.0354,0.575927734 C125.227946,0.909586589 124.614014,1.39839681 124.193604,2.0423584 C123.773193,2.68631999 123.562988,3.37866211 123.562988,4.11938477 C123.562988,4.79337565 123.734823,5.40230306 124.078491,5.94616699 C124.42216,6.49003092 124.944336,6.94547526 125.64502,7.3125 C126.185547,7.59944661 127.129801,7.90474447 128.477783,8.22839355 C129.825765,8.55204264 130.696615,8.79060872 131.090332,8.9440918 C131.704264,9.17765299 132.144694,9.4662679 132.411621,9.80993652 C132.678548,10.1536051 132.812012,10.5556641 132.812012,11.0161133 C132.812012,11.4698893 132.673543,11.8886312 132.396606,12.2723389 C132.11967,12.6560465 131.697591,12.9580078 131.130371,13.1782227 C130.563151,13.3984375 129.90918,13.5085449 129.168457,13.5085449 C128.33431,13.5085449 127.583577,13.3634033 126.91626,13.0731201 C126.248942,12.7828369 125.756795,12.4024658 125.439819,11.9320068 C125.122843,11.4615479 124.92098,10.8592936 124.834229,10.1252441 L124.834229,10.1252441 L123.002441,10.2854004 C123.029134,11.2663574 123.297729,12.1455485 123.808228,12.9229736 C124.318726,13.7003988 125.022746,14.2826335 125.920288,14.6696777 C126.81783,15.056722 127.930583,15.2502441 129.258545,15.2502441 Z" id="APPS"></path>
            </g>
        </g>
    </g>
</svg>